# xmcd
#
# Track frame offsets: 
#        150
#        21645
#        34210
#        61732
#        77314
#        91364
#        112814
#        127298
#        141962
#        165524
#        176260
#        197819
#        214255
#
# Disc length: 3011 seconds
#
# Revision: 0
# Processed by: cddbd v1.5.2PL0 Copyright (c) Steve Scherf et al.
# Submitted via: ExactAudioCopy v1.0b3
#
DISCID=b00bc10d
DTITLE=John Cale - Music For A New Society [CD 1)
DYEAR=2016
DGENRE=Rock
TTITLE0=Taking Your Life In Your Hands
TTITLE1=Thoughtless Kind
TTITLE2=Sanctus (Sanities)
TTITLE3=If You Were Still Around
TTITLE4=Close Watch
TTITLE5=Broken Bird
TTITLE6=Chinese Envoy
TTITLE7=Changes Made
TTITLE8=Damn Life
TTITLE9=Risé, Sam And Rimsky Korsakov
TTITLE10=Library Of Force [Bonus Track]
TTITLE11=Chinese Envoy [Bonus Track]
TTITLE12=Thoughtless Kind [Bonus Track]
EXTD=
EXTT0=
EXTT1=
EXTT2=
EXTT3=
EXTT4=
EXTT5=
EXTT6=
EXTT7=
EXTT8=
EXTT9=
EXTT10=
EXTT11=
EXTT12=
PLAYORDER=
